# Blender v2.69 (sub 0) OBJ File: 'SpaceShip.blend'
# www.blender.org
mtllib models/SpaceShip.mtl
v 0.650832 0.271315 -1.000000
v 1.240349 -0.000333 1.000000
v 0.650832 0.315481 -1.000000
v 1.240348 0.180615 0.560630
v 0.805783 -0.000334 4.284117
v 0.805782 0.180615 4.284118
v 3.119281 -0.942804 2.322021
v 3.119280 -0.761855 1.882651
v 0.650832 0.315481 -1.000000
v 1.240348 0.180615 0.560630
v 3.119280 -0.761855 1.882651
v 0.507604 0.512063 -1.000000
v 0.556329 0.986010 1.000001
v 0.218978 0.452316 3.753458
v 1.240349 -0.000333 -0.372761
v 1.240349 0.180615 -0.372760
v 3.119281 -0.942804 0.949260
v 3.119281 -0.761855 0.949260
v 1.240349 0.180615 -0.372760
v 3.119281 -0.761855 0.949260
v 0.653542 0.986010 -0.372760
v 3.457423 -0.942803 2.322021
v 3.457423 -0.761854 1.882651
v 3.457423 -0.942803 0.949260
v 3.457423 -0.761854 0.949261
v 3.119281 -0.942804 2.322021
v 3.119280 -0.761855 2.321895
v 3.457423 -0.942803 2.322021
v 3.457423 -0.761854 2.321895
v 3.182715 -0.908858 2.321997
v 3.182715 -0.795800 2.321919
v 3.393988 -0.908857 2.321997
v 3.393988 -0.795800 2.321919
v 3.182715 -0.907922 3.673004
v 3.182715 -0.794865 3.672926
v 3.393988 -0.907922 3.673004
v 3.393988 -0.794865 3.672926
v 3.242466 -0.875948 3.672982
v 3.242466 -0.826839 3.672948
v 3.334237 -0.875948 3.672982
v 3.334237 -0.826839 3.672948
v 3.242466 -0.875760 3.945883
v 3.242466 -0.826651 3.945849
v 3.334237 -0.875760 3.945883
v 3.334237 -0.826651 3.945849
v 0.960107 0.565249 0.770461
v 0.525541 0.310371 4.030690
v 0.582431 0.409363 -1.000000
v 0.960107 0.565249 -0.372760
v 0.845504 0.498033 1.630241
v 0.538940 0.845265 1.726136
v 1.125746 0.180615 1.542580
v 1.125746 -0.000333 1.866080
v -0.650832 0.271315 -1.000000
v -1.240349 -0.000333 1.000000
v 0.000000 -0.000333 1.000000
v 0.000000 0.271315 -1.000000
v -0.650832 0.315481 -1.000000
v -1.240348 0.180615 0.560630
v 0.000000 0.315481 -1.000000
v -0.805783 -0.000334 4.284117
v 0.000000 -0.000334 5.383713
v -0.805782 0.180615 4.284118
v 0.000000 0.180615 5.383713
v -3.119281 -0.942804 2.322021
v -3.119280 -0.761855 1.882651
v -0.650832 0.315481 -1.000000
v -1.240348 0.180615 0.560630
v -3.119280 -0.761855 1.882651
v -0.507604 0.512063 -1.000000
v -0.556329 0.986010 1.000001
v 0.000000 0.986010 1.000000
v 0.000000 0.512063 -1.000000
v -0.218978 0.452316 3.753458
v 0.000000 0.452316 4.853053
v -1.240349 -0.000333 -0.372761
v 0.000000 -0.000333 -0.372761
v -1.240349 0.180615 -0.372760
v -3.119281 -0.942804 0.949260
v -3.119281 -0.761855 0.949260
v -1.240349 0.180615 -0.372760
v -3.119281 -0.761855 0.949260
v -0.653542 0.986010 -0.372760
v 0.000000 0.986010 -0.372761
v -3.457423 -0.942803 2.322021
v -3.457423 -0.761854 1.882651
v -3.457423 -0.942803 0.949260
v -3.457423 -0.761854 0.949261
v -3.119281 -0.942804 2.322021
v -3.119280 -0.761855 2.321895
v -3.457423 -0.942803 2.322021
v -3.457423 -0.761854 2.321895
v -3.182715 -0.908858 2.321997
v -3.182715 -0.795800 2.321919
v -3.393988 -0.908857 2.321997
v -3.393988 -0.795800 2.321919
v -3.182715 -0.907922 3.673004
v -3.182715 -0.794865 3.672926
v -3.393988 -0.907922 3.673004
v -3.393988 -0.794865 3.672926
v -3.242466 -0.875948 3.672982
v -3.242466 -0.826839 3.672948
v -3.334237 -0.875948 3.672982
v -3.334237 -0.826839 3.672948
v -3.242466 -0.875760 3.945883
v -3.242466 -0.826651 3.945849
v -3.334237 -0.875760 3.945883
v -3.334237 -0.826651 3.945849
v 0.000000 0.409363 -1.000000
v -0.960107 0.565249 0.770461
v -0.525541 0.310371 4.030690
v -0.582431 0.409363 -1.000000
v 0.000000 0.310371 5.130285
v -0.960107 0.565249 -0.372760
v -0.845504 0.498033 1.630241
v -0.538940 0.845265 1.726136
v 0.000000 0.948491 1.700656
v 0.000000 -0.000333 2.156063
v -1.125746 0.180615 1.542580
v -1.125746 -0.000333 1.866080
vn 0.000000 -1.000000 0.000000
vn 0.682908 0.497563 -0.534853
vn 0.575439 0.000002 -0.817845
vn 0.000000 0.000000 -1.000000
vn 0.806610 0.000002 0.591084
vn 0.000000 0.000003 -1.000000
vn 0.965170 0.228332 0.127715
vn 0.192217 0.907412 0.373706
vn 0.448356 0.893855 0.000000
vn 0.728679 0.000000 -0.684856
vn 0.000000 0.000000 1.000000
vn 0.000000 1.000000 0.000000
vn 0.761362 0.630550 0.150779
vn 0.000000 -0.917638 -0.397416
vn 0.721519 0.692395 0.000000
vn -0.448357 -0.893855 0.000000
vn 0.000000 0.797847 -0.602860
vn 1.000000 0.000000 0.000000
vn 0.000002 -1.000000 0.000000
vn -0.000002 1.000000 0.000000
vn 0.000000 0.000695 1.000000
vn 1.000000 0.000003 0.000000
vn -0.000002 1.000000 -0.000693
vn 0.000003 0.000692 1.000000
vn 0.000003 0.000693 1.000000
vn 0.000000 0.000690 1.000000
vn 0.000000 0.000693 1.000000
vn 0.000001 -1.000000 0.000693
vn -1.000000 -0.000006 0.000000
vn 1.000000 0.000006 -0.000000
vn -0.000002 1.000000 -0.000689
vn 0.000009 0.000692 1.000000
vn 0.000002 0.000692 1.000000
vn 0.000007 0.000689 1.000000
vn 0.000002 -1.000000 0.000690
vn -1.000000 -0.000009 0.000000
vn 0.263229 0.945252 0.192894
vn 0.758704 0.645390 0.088548
vn 0.808228 0.588870 0.000001
vn 0.944597 0.303502 0.124992
vn -0.000000 0.981729 0.190286
vn -0.682908 0.497563 -0.534853
vn -0.575439 0.000002 -0.817845
vn -0.806610 0.000000 0.591083
vn -0.965170 0.228332 0.127715
vn -0.192217 0.907412 0.373706
vn -0.448356 0.893855 0.000000
vn -0.728679 0.000000 -0.684856
vn -0.761362 0.630550 0.150779
vn -0.721519 0.692395 0.000000
vn 0.448357 -0.893855 0.000000
vn -1.000000 0.000000 0.000000
vn -0.000002 -1.000000 0.000000
vn 0.000002 1.000000 0.000000
vn 1.000000 -0.000002 0.000000
vn 0.000002 1.000000 -0.000693
vn 0.000000 0.000692 1.000000
vn 0.000008 0.000692 1.000000
vn -0.000001 -1.000000 0.000693
vn 1.000000 -0.000006 0.000000
vn -1.000000 0.000006 -0.000000
vn 0.000002 1.000000 -0.000689
vn -0.000009 0.000692 1.000000
vn 0.000000 0.000689 1.000000
vn -0.000007 0.000689 1.000000
vn -0.000002 -1.000000 0.000690
vn 1.000000 -0.000009 0.000000
vn -0.690100 0.644187 0.329827
vn -0.758704 0.645390 0.088548
vn -0.808228 0.588870 0.000001
vn -0.944597 0.303502 0.124992
vn -0.328178 0.937339 0.117023
vn 0.806610 0.000000 0.591083
vn 0.000000 0.000001 -1.000000
vn 0.993258 0.000003 0.115923
vn 0.728679 0.000002 -0.684855
vn 0.751884 0.643653 0.142763
vn 0.806907 0.587908 0.057142
vn 0.000001 0.797847 -0.602860
vn 1.000000 0.000006 0.000001
vn -0.000001 0.000695 1.000000
vn -1.000000 -0.000003 0.000000
vn -0.000002 1.000000 -0.000692
vn -0.000008 0.000692 1.000000
vn -0.000001 0.000693 1.000000
vn 0.000001 -1.000000 0.000692
vn 1.000000 0.000002 -0.000000
vn -0.000001 1.000000 -0.000690
vn -0.000010 0.000689 1.000000
vn -0.000004 0.000693 1.000000
vn 1.000000 0.000001 0.000000
vn 0.000001 -1.000000 0.000689
vn 0.690100 0.644187 0.329827
vn 0.836535 0.526222 0.152643
vn 0.808227 0.588871 0.000000
vn 0.972590 0.202939 0.113510
vn 0.328178 0.937339 0.117023
vn 0.185458 0.981246 0.052544
vn -0.806610 0.000002 0.591084
vn -0.993258 0.000004 0.115923
vn -0.192217 0.907412 0.373705
vn -0.728679 0.000002 -0.684855
vn -0.751884 0.643653 0.142763
vn -0.806907 0.587908 0.057142
vn -0.000001 0.797847 -0.602860
vn -1.000000 0.000006 0.000001
vn -1.000000 0.000003 0.000000
vn 0.000002 1.000000 -0.000692
vn -0.000005 0.000693 1.000000
vn -0.000001 -1.000000 0.000692
vn 0.000001 1.000000 -0.000690
vn 0.000010 0.000689 1.000000
vn 0.000005 0.000693 1.000000
vn 0.000004 0.000689 1.000000
vn -0.000001 -1.000000 0.000689
vn 1.000000 0.000009 0.000000
vn -0.263229 0.945252 0.192894
vn -0.836535 0.526222 0.152643
vn -0.808227 0.588871 0.000000
vn -0.972590 0.202938 0.113510
vn -0.185458 0.981246 0.052544
vn 0.174007 0.961259 0.213781
vn 0.304341 0.941392 0.145457
vn -0.174007 0.961259 0.213781
vn -0.916337 0.356408 0.182483
vn -0.238143 0.945775 0.220902
vn 0.615401 0.778629 0.122553
vn 0.916337 0.356408 0.182483
vn 0.238143 0.945775 0.220902
vn -0.615401 0.778629 0.122553
vn -0.304341 0.941392 0.145457
usemtl Base
s off
f 15//1 2//1 77//1
f 49//2 48//2 21//2
f 17//3 15//3 19//3
f 48//4 109//4 73//4
f 5//5 6//5 64//5
f 3//6 1//6 60//6
f 118//1 53//1 62//1
f 53//7 52//7 5//7
f 17//6 18//6 25//6
f 4//8 2//8 7//8
f 19//9 10//9 11//9
f 1//10 3//10 15//10
f 16//11 4//11 19//11
f 4//11 8//11 10//11
f 21//12 84//12 72//12
f 50//13 46//13 51//13
f 1//14 15//14 57//14
f 46//15 49//15 13//15
f 2//16 15//16 7//16
f 8//11 18//11 11//11
f 3//11 16//11 9//11
f 12//17 73//17 21//17
f 24//18 25//18 22//18
f 7//19 17//19 22//19
f 23//20 8//20 29//20
f 18//20 8//20 25//20
f 29//21 27//21 33//21
f 8//11 7//11 26//11
f 22//22 23//22 29//22
f 7//11 22//11 26//11
f 33//23 31//23 37//23
f 27//24 26//24 30//24
f 28//25 29//25 33//25
f 26//26 28//26 30//26
f 37//27 35//27 41//27
f 30//28 32//28 34//28
f 31//29 30//29 35//29
f 32//30 33//30 36//30
f 41//31 39//31 45//31
f 35//32 34//32 39//32
f 36//33 37//33 41//33
f 34//27 36//27 38//27
f 43//34 42//34 45//34
f 40//18 41//18 44//18
f 38//35 40//35 42//35
f 39//36 38//36 43//36
f 16//2 3//2 48//2
f 3//4 60//4 109//4
f 64//37 6//37 47//37
f 52//38 4//38 50//38
f 4//39 16//39 46//39
f 2//40 4//40 53//40
f 6//38 52//38 50//38
f 56//1 2//1 118//1
f 13//41 72//41 51//41
f 76//1 77//1 55//1
f 114//42 83//42 112//42
f 79//43 82//43 81//43
f 112//4 70//4 73//4
f 61//44 62//44 64//44
f 58//6 60//6 54//6
f 118//1 62//1 120//1
f 120//45 61//45 119//45
f 79//6 87//6 88//6
f 59//46 66//46 65//46
f 81//47 82//47 69//47
f 54//48 76//48 58//48
f 78//11 81//11 59//11
f 59//11 68//11 66//11
f 83//12 71//12 72//12
f 115//49 116//49 110//49
f 54//14 57//14 76//14
f 110//50 71//50 114//50
f 55//51 65//51 76//51
f 66//11 69//11 80//11
f 58//11 67//11 78//11
f 70//17 83//17 73//17
f 87//52 85//52 88//52
f 65//53 85//53 79//53
f 86//54 92//54 66//54
f 80//54 88//54 66//54
f 92//21 96//21 90//21
f 66//55 90//55 65//55
f 85//11 91//11 86//11
f 65//11 89//11 85//11
f 96//56 100//56 94//56
f 90//57 94//57 93//57
f 91//58 95//58 96//58
f 89//26 93//26 91//26
f 100//27 104//27 98//27
f 93//59 97//59 95//59
f 94//60 98//60 93//60
f 95//61 99//61 96//61
f 104//62 108//62 102//62
f 98//63 102//63 97//63
f 99//64 103//64 104//64
f 97//27 101//27 99//27
f 106//65 108//65 105//65
f 103//52 107//52 104//52
f 101//66 105//66 103//66
f 102//67 106//67 101//67
f 78//42 114//42 112//42
f 58//4 112//4 109//4
f 64//68 113//68 111//68
f 119//69 115//69 59//69
f 59//70 110//70 78//70
f 55//71 120//71 59//71
f 63//72 111//72 115//72
f 56//1 118//1 55//1
f 71//41 116//41 72//41
f 2//1 56//1 77//1
f 48//2 12//2 21//2
f 20//3 17//3 19//3
f 12//4 48//4 73//4
f 62//73 5//73 64//73
f 1//74 57//74 60//74
f 53//1 5//1 62//1
f 52//75 6//75 5//75
f 24//6 17//6 25//6
f 8//8 4//8 7//8
f 20//9 19//9 11//9
f 3//76 16//76 15//76
f 4//11 10//11 19//11
f 8//11 11//11 10//11
f 13//12 21//12 72//12
f 46//77 13//77 51//77
f 15//14 77//14 57//14
f 49//78 21//78 13//78
f 15//16 17//16 7//16
f 18//11 20//11 11//11
f 16//11 19//11 9//11
f 73//79 84//79 21//79
f 25//80 23//80 22//80
f 17//19 24//19 22//19
f 8//20 27//20 29//20
f 8//20 23//20 25//20
f 27//81 31//81 33//81
f 27//82 8//82 26//82
f 28//11 22//11 29//11
f 22//11 28//11 26//11
f 31//83 35//83 37//83
f 31//57 27//57 30//57
f 32//84 28//84 33//84
f 28//21 32//21 30//21
f 35//85 39//85 41//85
f 32//86 36//86 34//86
f 30//52 34//52 35//52
f 33//87 37//87 36//87
f 39//88 43//88 45//88
f 34//89 38//89 39//89
f 40//64 36//64 41//64
f 36//90 40//90 38//90
f 42//65 44//65 45//65
f 41//91 45//91 44//91
f 40//92 44//92 42//92
f 38//61 42//61 43//61
f 49//2 16//2 48//2
f 48//4 3//4 109//4
f 113//93 64//93 47//93
f 4//94 46//94 50//94
f 16//95 49//95 46//95
f 4//96 52//96 53//96
f 47//97 6//97 50//97
f 2//1 53//1 118//1
f 72//98 117//98 51//98
f 77//1 56//1 55//1
f 83//42 70//42 112//42
f 76//43 79//43 81//43
f 109//4 112//4 73//4
f 63//99 61//99 64//99
f 60//74 57//74 54//74
f 62//1 61//1 120//1
f 61//100 63//100 119//100
f 80//6 79//6 88//6
f 55//101 59//101 65//101
f 68//47 81//47 69//47
f 76//102 78//102 58//102
f 81//11 68//11 59//11
f 68//11 69//11 66//11
f 84//12 83//12 72//12
f 116//103 71//103 110//103
f 57//14 77//14 76//14
f 71//104 83//104 114//104
f 65//51 79//51 76//51
f 69//11 82//11 80//11
f 67//11 81//11 78//11
f 83//105 84//105 73//105
f 85//106 86//106 88//106
f 85//53 87//53 79//53
f 92//54 90//54 66//54
f 88//54 86//54 66//54
f 96//21 94//21 90//21
f 90//11 89//11 65//11
f 91//107 92//107 86//107
f 89//11 91//11 85//11
f 100//108 98//108 94//108
f 89//57 90//57 93//57
f 92//109 91//109 96//109
f 93//21 95//21 91//21
f 104//27 102//27 98//27
f 97//110 99//110 95//110
f 98//18 97//18 93//18
f 99//52 100//52 96//52
f 108//111 106//111 102//111
f 102//112 101//112 97//112
f 100//57 99//57 104//57
f 101//113 103//113 99//113
f 108//114 107//114 105//114
f 107//52 108//52 104//52
f 105//115 107//115 103//115
f 106//116 105//116 101//116
f 58//42 78//42 112//42
f 60//4 58//4 109//4
f 63//117 64//117 111//117
f 115//118 110//118 59//118
f 110//119 114//119 78//119
f 120//120 119//120 59//120
f 119//69 63//69 115//69
f 118//1 120//1 55//1
f 116//121 117//121 72//121
usemtl Black
f 51//122 117//122 14//122
f 113//123 47//123 14//123
f 47//13 50//13 51//13
f 116//124 74//124 117//124
f 113//125 75//125 74//125
f 111//126 74//126 116//126
f 117//127 75//127 14//127
f 75//128 113//128 14//128
f 14//129 47//129 51//129
f 74//130 75//130 117//130
f 111//131 113//131 74//131
f 115//49 111//49 116//49
